<?xml version="1.0" encoding="UTF-8"?>
<svg width="170" height="430" viewBox="0 0 170 430"
     xmlns="http://www.w3.org/2000/svg">
  <!-- Border -->
  <rect x="8" y="12" width="150" height="402" rx="16" fill="none" stroke="#888" stroke-width="3"/>

  <!-- Header -->
  <text class="title" x="83" y="32" text-anchor="middle">I2C EXPANDER</text>

  <!-- Inner panel -->
  <rect class="inner" x="22" y="103" width="122" height="300" rx="12"/>

  <!-- IP label and box (visual only) -->
  <text class="label" x="34" y="227">IP ADDRESS</text>
  <rect class="ipBox" x="30" y="237" width="110" height="34" rx="8"/>
  <text class="ipText" x="35" y="259" textLength="100" lengthAdjust="spacingAndGlyphs">0.0.0.0</text>

  <!-- Module grid, same position as head module -->
  <g id="hat_indicators" transform="translate(57,305)">
    <text class="label" x="0" y="-8">MODULES</text>
    <text class="label" x="-6" y="8" text-anchor="end">1</text>
    <rect id="exp_mod_1" class="hat-off" x="0" y="0" width="16" height="10" rx="2"><title>Module 1</title></rect>
    <text class="label" x="-6" y="26" text-anchor="end">2</text>
    <rect id="exp_mod_2" class="hat-off" x="0" y="18" width="16" height="10" rx="2"><title>Module 2</title></rect>
    <text class="label" x="-6" y="44" text-anchor="end">3</text>
    <rect id="exp_mod_3" class="hat-off" x="0" y="36" width="16" height="10" rx="2"><title>Module 3</title></rect>
    <text class="label" x="-6" y="62" text-anchor="end">4</text>
    <rect id="exp_mod_4" class="hat-off" x="0" y="54" width="16" height="10" rx="2"><title>Module 4</title></rect>
    <rect id="exp_mod_5" class="hat-off" x="36" y="0" width="16" height="10" rx="2"><title>Module 5</title></rect>
    <text class="label" x="58" y="8" text-anchor="start">5</text>
    <rect id="exp_mod_6" class="hat-off" x="36" y="18" width="16" height="10" rx="2"><title>Module 6</title></rect>
    <text class="label" x="58" y="26" text-anchor="start">6</text>
    <rect id="exp_mod_7" class="hat-off" x="36" y="36" width="16" height="10" rx="2"><title>Module 7</title></rect>
    <text class="label" x="58" y="44" text-anchor="start">7</text>
    <rect id="exp_mod_8" class="hat-off" x="36" y="54" width="16" height="10" rx="2"><title>Module 8</title></rect>
    <text class="label" x="58" y="62" text-anchor="start">8</text>
    <!-- Back button below module grid -->
    <text class="label" x="24" y="80" text-anchor="end">BACK</text>
    <rect id="expander_back_btn" class="hat-off" x="28" y="72" width="16" height="10" rx="2" style="cursor:pointer" onclick="onExpanderBackClick(event)"><title>Back</title></rect>
  </g>
  <!-- Card -->
  <rect class="card" x="8" y="12" width="150" height="402" rx="16"/>

  <!-- Border -->
  <rect x="8" y="12" width="150" height="402" rx="16" fill="none" stroke="#888" stroke-width="3"/>




  <!-- Back button centered under indicators grid with more space -->
  <g id="expander_back_btn" style="cursor:pointer;" tabindex="0" role="button" aria-label="Back" onclick="onExpanderBackClick(event)">
    <rect x="55" y="225" width="60" height="28" rx="8" fill="#e0e0e0" stroke="#888" stroke-width="1.5"/>
    <text x="85" y="241" text-anchor="middle" dominant-baseline="middle" font-size="14" font-family="Arial,Helvetica,sans-serif" fill="#333">Back</text>
  </g>

  <!-- Header -->
  <text class="title" x="83" y="32" text-anchor="middle" font-size="14">I2C EXPANDER</text>

  <!-- Module grid, centered vertically -->
  <g id="hat_indicators" transform="translate(57,135)">
    <text class="label" x="0" y="-8">MODULES</text>
    <text class="label" x="-6" y="8" text-anchor="end">1</text>
    <rect id="exp_mod_1" class="hat-off" x="0" y="0" width="16" height="10" rx="2"><title>Module 1</title></rect>
    <text class="label" x="-6" y="26" text-anchor="end">2</text>
    <rect id="exp_mod_2" class="hat-off" x="0" y="18" width="16" height="10" rx="2"><title>Module 2</title></rect>
    <text class="label" x="-6" y="44" text-anchor="end">3</text>
    <rect id="exp_mod_3" class="hat-off" x="0" y="36" width="16" height="10" rx="2"><title>Module 3</title></rect>
    <text class="label" x="-6" y="62" text-anchor="end">4</text>
    <rect id="exp_mod_4" class="hat-off" x="0" y="54" width="16" height="10" rx="2"><title>Module 4</title></rect>
    <rect id="exp_mod_5" class="hat-off" x="36" y="0" width="16" height="10" rx="2"><title>Module 5</title></rect>
    <text class="label" x="58" y="8" text-anchor="start">5</text>
    <rect id="exp_mod_6" class="hat-off" x="36" y="18" width="16" height="10" rx="2"><title>Module 6</title></rect>
    <text class="label" x="58" y="26" text-anchor="start">6</text>
    <rect id="exp_mod_7" class="hat-off" x="36" y="36" width="16" height="10" rx="2"><title>Module 7</title></rect>
    <text class="label" x="58" y="44" text-anchor="start">7</text>
    <rect id="exp_mod_8" class="hat-off" x="36" y="54" width="16" height="10" rx="2"><title>Module 8</title></rect>
    <text class="label" x="58" y="62" text-anchor="start">8</text>
  </g>
</svg>
