<?xml version="1.0" encoding="UTF-8"?>
<svg
  xmlns="http://www.w3.org/2000/svg"
  width="1in"
  height="2.5in"
  viewBox="0 0 100 250"
  role="img"
  aria-label="I2C Expander">

  <defs>
    <style>
      .outer { fill: #e6e6e6; stroke: #b5b5b5; stroke-width: 2; }
      .title { font: 700 9px system-ui, -apple-system, Segoe UI, Arial, sans-serif; fill: #333; }
      .small { font: 600 7px system-ui, -apple-system, Segoe UI, Arial, sans-serif; fill: #555; }
      .lednum { font: 700 6px system-ui, -apple-system, Segoe UI, Arial, sans-serif; fill: #222; text-anchor: middle; dominant-baseline: middle;}

      .led { fill: #d8d8d8; stroke: #7a7a7a; stroke-width: 1; }
      .led-on { fill: #4aa3ff; stroke: #1c66b5; }

      .type { font: 700 7px system-ui, -apple-system, Segoe UI, Arial, sans-serif; fill: #555; text-anchor: start; }
      .addr { font: 600 7px system-ui, -apple-system, Segoe UI, Arial, sans-serif; fill: #777; text-anchor: start; }
    </style>
  </defs>

  <!-- Body -->
  <rect class="outer" x="0" y="0" width="100" height="250" rx="10" ry="10"/>

  <!-- Title -->
  <text class="title" x="50" y="22" text-anchor="middle">I2C EXPANDER</text>

  <!-- Single column: channels 1–8; spacing and positions mirror DO card left column -->
  <!-- x positions: number 23, dot 35, type 50, addr 72; y start 85, step 16 -->
  <g id="ch_container">
    <g id="row01" transform="translate(0,0)">
      <text class="lednum" x="23" y="85">1</text>
      <circle class="led" id="ch01" cx="35" cy="85" r="6"/>
      <text class="type" x="50" y="83" id="ch01_type">--</text>
      <text class="addr" x="50" y="91" id="ch01_addr">0x00</text>
    </g>
    <g id="row02" transform="translate(0,16)">
      <text class="lednum" x="23" y="85">2</text>
      <circle class="led" id="ch02" cx="35" cy="85" r="6"/>
      <text class="type" x="50" y="83" id="ch02_type">--</text>
      <text class="addr" x="50" y="91" id="ch02_addr">0x00</text>
    </g>
    <g id="row03" transform="translate(0,32)">
      <text class="lednum" x="23" y="85">3</text>
      <circle class="led" id="ch03" cx="35" cy="85" r="6"/>
      <text class="type" x="50" y="83" id="ch03_type">--</text>
      <text class="addr" x="50" y="91" id="ch03_addr">0x00</text>
    </g>
    <g id="row04" transform="translate(0,48)">
      <text class="lednum" x="23" y="85">4</text>
      <circle class="led" id="ch04" cx="35" cy="85" r="6"/>
      <text class="type" x="50" y="83" id="ch04_type">--</text>
      <text class="addr" x="50" y="91" id="ch04_addr">0x00</text>
    </g>
    <g id="row05" transform="translate(0,64)">
      <text class="lednum" x="23" y="85">5</text>
      <circle class="led" id="ch05" cx="35" cy="85" r="6"/>
      <text class="type" x="50" y="83" id="ch05_type">--</text>
      <text class="addr" x="50" y="91" id="ch05_addr">0x00</text>
    </g>
    <g id="row06" transform="translate(0,80)">
      <text class="lednum" x="23" y="85">6</text>
      <circle class="led" id="ch06" cx="35" cy="85" r="6"/>
      <text class="type" x="50" y="83" id="ch06_type">--</text>
      <text class="addr" x="50" y="91" id="ch06_addr">0x00</text>
    </g>
    <g id="row07" transform="translate(0,96)">
      <text class="lednum" x="23" y="85">7</text>
      <circle class="led" id="ch07" cx="35" cy="85" r="6"/>
      <text class="type" x="50" y="83" id="ch07_type">--</text>
      <text class="addr" x="50" y="91" id="ch07_addr">0x00</text>
    </g>
    <g id="row08" transform="translate(0,112)">
      <text class="lednum" x="23" y="85">8</text>
      <circle class="led" id="ch08" cx="35" cy="85" r="6"/>
      <text class="type" x="50" y="83" id="ch08_type">--</text>
      <text class="addr" x="50" y="91" id="ch08_addr">0x00</text>
    </g>
  </g>
</svg>
